<svg xmlns="http://www.w3.org/2000/svg" viewBox="0 0 317.49 119.56"><defs><style>.cls-1{fill:#e52421;}.cls-2{fill:#fff;}</style></defs><g id="Capa_2" data-name="Capa 2"><g id="Capa_1-2" data-name="Capa 1"><path class="cls-1" d="M140.46,18.2a4,4,0,0,1,4-4h10.87c8.68,0,13.93,5.15,13.93,12.59v.1c0,8.43-6.55,12.8-14.71,12.8h-6.09V46.9a4,4,0,1,1-8,0Zm14.36,14.35c4,0,6.34-2.39,6.34-5.51v-.11c0-3.58-2.5-5.51-6.5-5.51h-6.19V32.55Z"/><path class="cls-1" d="M172.19,42.59v-.11c0-6.08,4.63-8.89,11.23-8.89a19.66,19.66,0,0,1,6.81,1.15v-.47c0-3.28-2-5.1-6-5.1a18.09,18.09,0,0,0-5.46.78,3.27,3.27,0,0,1-4.42-3,3.28,3.28,0,0,1,2.13-3.06,24.2,24.2,0,0,1,8.9-1.46c4.31,0,7.43,1.14,9.41,3.12s3,5.15,3,8.89V47.11a3.8,3.8,0,0,1-3.85,3.8,3.54,3.54,0,0,1-3.8-3.28v-.05a10.72,10.72,0,0,1-8.42,3.54C176.5,51.12,172.19,48.1,172.19,42.59Zm18.15-1.82V39.36a12.32,12.32,0,0,0-5.05-1c-3.38,0-5.46,1.36-5.46,3.85v.11c0,2.13,1.77,3.38,4.32,3.38C187.84,45.66,190.34,43.63,190.34,40.77Z"/><path class="cls-1" d="M205.68,42.69V29.48h-.26a3.38,3.38,0,1,1,0-6.76h.26V19.24a4,4,0,0,1,7.9,0v3.48h3.49a3.38,3.38,0,0,1,0,6.76h-3.49V41.39c0,1.82.78,2.71,2.55,2.71.26,0,.78-.06.94-.06a3.3,3.3,0,0,1,3.27,3.28,3.2,3.2,0,0,1-2,3,11.55,11.55,0,0,1-4.53.78C209,51.06,205.68,49.14,205.68,42.69Z"/><path class="cls-1" d="M225.86,16.07c0-2.29,1.92-3.7,4.42-3.7s4.42,1.41,4.42,3.7v.1c0,2.29-1.93,3.74-4.42,3.74s-4.42-1.45-4.42-3.74Zm.47,10.29a3.95,3.95,0,1,1,7.9,0V47a4,4,0,1,1-7.9,0Z"/><path class="cls-1" d="M243,42.69V29.48h-.26a3.38,3.38,0,1,1,0-6.76H243V19.24a4,4,0,0,1,7.9,0v3.48h3.48a3.38,3.38,0,1,1,0,6.76h-3.48V41.39c0,1.82.78,2.71,2.55,2.71.26,0,.78-.06.93-.06a3.3,3.3,0,0,1,3.28,3.28,3.21,3.21,0,0,1-2,3,11.5,11.5,0,0,1-4.52.78C246.24,51.06,243,49.14,243,42.69Z"/><path class="cls-1" d="M261.58,42.59v-.11c0-6.08,4.63-8.89,11.24-8.89a19.74,19.74,0,0,1,6.81,1.15v-.47c0-3.28-2-5.1-6-5.1a18,18,0,0,0-5.46.78,3.27,3.27,0,0,1-1.15.21,3.21,3.21,0,0,1-3.27-3.23,3.27,3.27,0,0,1,2.13-3.06,24.19,24.19,0,0,1,8.89-1.46c4.32,0,7.44,1.14,9.41,3.12s3,5.15,3,8.89V47.11a3.8,3.8,0,0,1-3.85,3.8,3.53,3.53,0,0,1-3.79-3.28v-.05a10.74,10.74,0,0,1-8.43,3.54C265.9,51.12,261.58,48.1,261.58,42.59Zm18.15-1.82V39.36a12.31,12.31,0,0,0-5-1c-3.38,0-5.46,1.36-5.46,3.85v.11c0,2.13,1.77,3.38,4.31,3.38C277.24,45.66,279.73,43.63,279.73,40.77Z"/><path class="cls-1" d="M293.31,47.94a3.12,3.12,0,0,1-1.51-2.7,3.12,3.12,0,0,1,4.68-2.7A14.69,14.69,0,0,0,304,45c2.29,0,3.33-.83,3.33-2.08v-.1c0-1.72-2.71-2.29-5.78-3.23-3.9-1.14-8.32-3-8.32-8.37v-.1c0-5.67,4.58-8.84,10.2-8.84a19.64,19.64,0,0,1,8.63,2.13,3.22,3.22,0,0,1,1.87,3,3.1,3.1,0,0,1-3.17,3.12,2.9,2.9,0,0,1-1.46-.36,14.88,14.88,0,0,0-6-1.77c-1.92,0-2.91.83-2.91,1.92v.11c0,1.56,2.65,2.29,5.67,3.33,3.9,1.3,8.42,3.17,8.42,8.27v.1c0,6.19-4.63,9-10.66,9A19.38,19.38,0,0,1,293.31,47.94Z"/><path class="cls-1" d="M140.46,66.2a4,4,0,0,1,4-4h20.38a3.64,3.64,0,1,1,0,7.28H148.47v7.75h14a3.64,3.64,0,1,1,0,7.28h-14V94.9a4,4,0,1,1-8,0Z"/><path class="cls-1" d="M186.18,99.22c-8.38,0-14.56-5.88-14.56-14.4v-.11c0-7.95,5.66-14.51,13.78-14.51,9.3,0,13.41,7.65,13.41,13.42a3.61,3.61,0,0,1-3.69,3.8H179.47a6.47,6.47,0,0,0,6.81,5.46A9.14,9.14,0,0,0,191.9,91a3,3,0,0,1,1.92-.62,3,3,0,0,1,3.07,3.12,3.11,3.11,0,0,1-1,2.34A14.46,14.46,0,0,1,186.18,99.22Zm5.09-16.75c-.47-3.53-2.55-5.92-5.87-5.92s-5.41,2.34-6,5.92Z"/><path class="cls-1" d="M205.21,64.27a4,4,0,0,1,7.9,0V95a4,4,0,0,1-7.9,0Z"/><path class="cls-1" d="M220.45,64.07c0-2.29,1.92-3.7,4.42-3.7s4.42,1.41,4.42,3.7v.1c0,2.29-1.93,3.74-4.42,3.74s-4.42-1.45-4.42-3.74Zm.46,10.29a4,4,0,0,1,7.91,0V95a4,4,0,0,1-7.91,0Z"/><path class="cls-1" d="M234.9,84.82v-.11A14.32,14.32,0,0,1,249.52,70.2,14,14,0,0,1,259,73.32,3.51,3.51,0,0,1,260.28,76a3.55,3.55,0,0,1-3.59,3.53,3.69,3.69,0,0,1-2.29-.78A7.54,7.54,0,0,0,249.46,77c-4,0-6.76,3.49-6.76,7.6v.1c0,4.27,2.76,7.7,7.08,7.7a8,8,0,0,0,5.2-1.93,3.66,3.66,0,0,1,2.13-.72,3.35,3.35,0,0,1,2.18,5.87,13.71,13.71,0,0,1-9.88,3.59A14.23,14.23,0,0,1,234.9,84.82Z"/><path class="cls-1" d="M278.38,99.22c-8.37,0-14.56-5.88-14.56-14.4v-.11c0-7.95,5.67-14.51,13.78-14.51,9.31,0,13.41,7.65,13.41,13.42a3.61,3.61,0,0,1-3.69,3.8H271.67a6.47,6.47,0,0,0,6.81,5.46A9.1,9.1,0,0,0,284.1,91a3,3,0,0,1,1.92-.62,3,3,0,0,1,3.07,3.12,3.11,3.11,0,0,1-1,2.34A14.44,14.44,0,0,1,278.38,99.22Zm5.09-16.75c-.46-3.53-2.54-5.92-5.87-5.92s-5.41,2.34-6,5.92Z"/><path class="cls-1" d="M296.32,95.94a3.15,3.15,0,0,1-1.51-2.7,3.06,3.06,0,0,1,3.12-3.12,3,3,0,0,1,1.56.42A14.74,14.74,0,0,0,307,93c2.29,0,3.33-.83,3.33-2.08v-.1c0-1.72-2.7-2.29-5.77-3.23-3.9-1.14-8.32-3-8.32-8.37v-.1c0-5.67,4.57-8.84,10.19-8.84a19.61,19.61,0,0,1,8.63,2.13,3.21,3.21,0,0,1,1.88,3,3.11,3.11,0,0,1-3.18,3.12,2.86,2.86,0,0,1-1.45-.36,14.93,14.93,0,0,0-6-1.77c-1.93,0-2.92.83-2.92,1.92v.11c0,1.56,2.65,2.29,5.67,3.33,3.9,1.3,8.43,3.17,8.43,8.27v.1c0,6.19-4.63,9-10.66,9A19.38,19.38,0,0,1,296.32,95.94Z"/><path class="cls-1" d="M27.93,18.74c.08.86.14,2.29.38,3.68.81,4.7,2.42,9.07,6.5,11.91,5.3,3.69,11,3.45,16.63.88,3-1.37,4.38-3.92,4.48-7.19.12-4-1-7.79-2.29-11.51-1.75-5-4-9.77-7.9-13.51C41.14-1.37,36-.94,32.2,4.13,29.09,8.28,28,13.08,27.93,18.74Z"/><path class="cls-1" d="M93.42,18.23c-.14-6.13-1.78-11.14-4.75-14.68C85-.81,80.24-1.16,76,2.62a25.14,25.14,0,0,0-5.74,7.9,43,43,0,0,0-4.86,16.39c-.28,4.48,1.74,7.42,5.94,9a14.85,14.85,0,0,0,1.9.59c6,1.36,11.41.55,15.61-4.25C92.36,28.18,93.26,23.18,93.42,18.23Z"/><path class="cls-1" d="M12.82,46.27a52.77,52.77,0,0,0,5.48-1.34c3.08-1.11,4.66-3.28,4.46-6.53a35.68,35.68,0,0,0-1.41-7.65c-1.25-4.21-3-8.22-6.2-11.38-3.89-3.85-8.66-3.51-11.78,1-4,5.78-4.26,12-1.65,18.41C3.71,43.6,7.52,46,12.82,46.27Z"/><path class="cls-1" d="M121.2,32.47c0-5.73-1.19-9.67-3.4-12.42-3.37-4.21-8-4.43-11.75-.55a27.27,27.27,0,0,0-6,10.87c-1,3-1.79,6-1.45,9.2A6,6,0,0,0,101,43.8c4.44,3.44,12.42,2.84,16.22-1.28A15.62,15.62,0,0,0,121.2,32.47Z"/><path class="cls-1" d="M27.93,18.74C28,13.08,29.09,8.28,32.2,4.13,36-.94,41.14-1.37,45.73,3c3.92,3.74,6.15,8.5,7.9,13.51C54.93,20.23,56,24,55.92,28c-.1,3.27-1.46,5.82-4.48,7.19-5.67,2.57-11.33,2.81-16.63-.88-4.08-2.84-5.69-7.21-6.5-11.91C28.07,21,28,19.6,27.93,18.74Z"/><path class="cls-1" d="M93.42,18.23c-.16,4.95-1.06,10-4.58,14-4.2,4.8-9.65,5.61-15.61,4.25a14.85,14.85,0,0,1-1.9-.59c-4.2-1.54-6.22-4.48-5.94-9a43,43,0,0,1,4.86-16.39A25.14,25.14,0,0,1,76,2.62c4.25-3.78,9-3.43,12.68.93C91.64,7.09,93.28,12.1,93.42,18.23Z"/><path class="cls-1" d="M12.82,46.27C7.52,46,3.71,43.6,1.72,38.75-.89,32.38-.67,26.12,3.37,20.34c3.12-4.48,7.89-4.82,11.78-1,3.2,3.16,5,7.17,6.2,11.38a35.68,35.68,0,0,1,1.41,7.65c.2,3.25-1.38,5.42-4.46,6.53A52.77,52.77,0,0,1,12.82,46.27Z"/><path class="cls-1" d="M121.2,32.47a15.62,15.62,0,0,1-4,10.05c-3.8,4.12-11.78,4.72-16.22,1.28a6,6,0,0,1-2.35-4.23c-.34-3.2.48-6.21,1.45-9.2a27.27,27.27,0,0,1,6-10.87c3.73-3.88,8.38-3.66,11.75.55C120,22.8,121.24,26.74,121.2,32.47Z"/><path class="cls-1" d="M112.49,71.41c0,6.16-3,12.31-8.9,17L67,117.39a10.47,10.47,0,0,1-12.76,0l-36.64-29c-11.87-9.39-11.87-24.62,0-34a34.83,34.83,0,0,1,21.51-7,35.62,35.62,0,0,1,19.2,5.4,4.29,4.29,0,0,0,4.62,0,35.56,35.56,0,0,1,19.19-5.4,34.83,34.83,0,0,1,21.51,7C109.52,59.1,112.49,65.26,112.49,71.41Z"/><path class="cls-2" d="M60.38,93.33a41.55,41.55,0,0,1-20.25-5A25.52,25.52,0,0,1,29.5,77.8c-.55-1-.13-1.62.32-1.92a1.42,1.42,0,0,1,.77-.21,1,1,0,0,1,.65.21c4.86,4.17,10.87,6.88,18.36,8.29a58,58,0,0,0,10.68,1c1.8,0,3.62-.09,5.41-.26,7.57-.74,13.52-2.51,18.72-5.56a43,43,0,0,0,3.8-2.65l1.2-.9.13-.1a1.41,1.41,0,0,1,.87-.39,1.3,1.3,0,0,1,.74.27,1.23,1.23,0,0,1,.3,1.79,25.58,25.58,0,0,1-11,11,39.11,39.11,0,0,1-16,4.7c-.91.07-1.81.12-2.72.17l-1.3.08Z"/><path class="cls-2" d="M90.41,75.82a.72.72,0,0,1,.44.18c.59.42.34.8.12,1.24a25,25,0,0,1-10.75,10.7,38.58,38.58,0,0,1-15.84,4.65l-4,.24a40.94,40.94,0,0,1-20-5A24.85,24.85,0,0,1,29.94,77.56c-.26-.49-.33-.94.15-1.26a1,1,0,0,1,.5-.13.49.49,0,0,1,.32.09c5.39,4.61,11.72,7.11,18.6,8.4a57.43,57.43,0,0,0,10.77,1c1.81,0,3.63-.08,5.45-.26,6.69-.66,13.1-2.2,18.93-5.63a58.32,58.32,0,0,0,5-3.58c.26-.18.45-.39.71-.39m0-1a1.88,1.88,0,0,0-1.18.49l-.12.1-1.21.9a41.36,41.36,0,0,1-3.75,2.62c-5.13,3-11,4.76-18.51,5.49a53.42,53.42,0,0,1-5.36.26,57.06,57.06,0,0,1-10.59-1c-7.4-1.39-13.33-4.07-18.13-8.18a1.46,1.46,0,0,0-1-.33,1.92,1.92,0,0,0-1.05.3A1.78,1.78,0,0,0,29.06,78,26,26,0,0,0,39.89,88.72a42.08,42.08,0,0,0,20.49,5.11h.06l1.26-.07c.91-.06,1.83-.11,2.74-.18A39.67,39.67,0,0,0,80.7,88.82,26,26,0,0,0,91.86,77.69l0-.08a1.72,1.72,0,0,0-.46-2.42,1.8,1.8,0,0,0-1-.37Z"/></g></g></svg>